<?xml version="1.0" encoding="UTF-8"?>
<svg xmlns="http://www.w3.org/2000/svg" version="1.1" width="200" height="200" viewBox="0 0 200 200"><rect x="0" y="0" width="200" height="200" fill="#ffffff"/><g transform="scale(6.061)"><g transform="translate(0,0)"><path fill-rule="evenodd" d="M9 0L9 1L8 1L8 2L9 2L9 3L8 3L8 4L10 4L10 7L11 7L11 4L12 4L12 5L15 5L15 6L14 6L14 7L15 7L15 8L13 8L13 6L12 6L12 9L19 9L19 10L18 10L18 12L17 12L17 11L16 11L16 10L15 10L15 11L14 11L14 10L11 10L11 11L10 11L10 9L11 9L11 8L6 8L6 9L8 9L8 10L9 10L9 11L8 11L8 12L9 12L9 13L7 13L7 12L6 12L6 11L7 11L7 10L5 10L5 11L2 11L2 10L0 10L0 13L3 13L3 12L4 12L4 14L2 14L2 15L4 15L4 14L5 14L5 12L6 12L6 13L7 13L7 14L6 14L6 15L5 15L5 17L2 17L2 16L0 16L0 18L4 18L4 19L2 19L2 20L0 20L0 25L1 25L1 22L6 22L6 23L4 23L4 24L3 24L3 23L2 23L2 24L3 24L3 25L5 25L5 24L6 24L6 25L8 25L8 27L9 27L9 28L8 28L8 33L10 33L10 32L11 32L11 29L12 29L12 30L13 30L13 31L12 31L12 33L13 33L13 32L14 32L14 33L21 33L21 32L24 32L24 33L25 33L25 32L24 32L24 31L27 31L27 32L28 32L28 33L29 33L29 31L30 31L30 32L31 32L31 33L32 33L32 32L31 32L31 31L32 31L32 30L31 30L31 29L30 29L30 28L31 28L31 27L32 27L32 28L33 28L33 27L32 27L32 26L33 26L33 24L32 24L32 26L31 26L31 25L30 25L30 24L31 24L31 23L32 23L32 22L33 22L33 21L32 21L32 20L31 20L31 19L32 19L32 18L33 18L33 17L32 17L32 16L31 16L31 15L32 15L32 14L33 14L33 13L31 13L31 15L30 15L30 13L29 13L29 10L28 10L28 8L27 8L27 9L26 9L26 8L25 8L25 6L24 6L24 7L23 7L23 6L22 6L22 7L21 7L21 5L24 5L24 4L25 4L25 3L24 3L24 4L23 4L23 3L22 3L22 2L23 2L23 1L24 1L24 0L21 0L21 1L20 1L20 0L16 0L16 1L15 1L15 2L14 2L14 1L11 1L11 2L10 2L10 0ZM17 1L17 2L15 2L15 3L14 3L14 2L12 2L12 4L13 4L13 3L14 3L14 4L15 4L15 5L17 5L17 7L16 7L16 6L15 6L15 7L16 7L16 8L18 8L18 6L19 6L19 9L21 9L21 11L22 11L22 10L23 10L23 11L26 11L26 12L25 12L25 13L24 13L24 12L23 12L23 13L22 13L22 12L21 12L21 13L20 13L20 10L19 10L19 13L13 13L13 12L14 12L14 11L12 11L12 13L11 13L11 12L10 12L10 13L11 13L11 14L9 14L9 15L11 15L11 16L9 16L9 18L7 18L7 17L8 17L8 15L6 15L6 16L7 16L7 17L5 17L5 19L4 19L4 20L2 20L2 21L6 21L6 22L8 22L8 25L10 25L10 24L9 24L9 23L10 23L10 22L11 22L11 26L10 26L10 29L9 29L9 30L10 30L10 29L11 29L11 26L13 26L13 27L12 27L12 29L14 29L14 30L17 30L17 31L14 31L14 32L21 32L21 31L22 31L22 30L21 30L21 31L20 31L20 30L19 30L19 29L23 29L23 31L24 31L24 27L22 27L22 28L20 28L20 27L21 27L21 26L19 26L19 27L18 27L18 25L22 25L22 26L24 26L24 25L22 25L22 24L23 24L23 23L24 23L24 24L27 24L27 22L25 22L25 21L27 21L27 20L28 20L28 19L26 19L26 18L25 18L25 17L28 17L28 18L29 18L29 17L30 17L30 19L29 19L29 20L30 20L30 21L28 21L28 24L30 24L30 23L29 23L29 22L30 22L30 21L31 21L31 20L30 20L30 19L31 19L31 16L30 16L30 15L29 15L29 13L28 13L28 16L26 16L26 14L25 14L25 13L27 13L27 12L28 12L28 11L27 11L27 10L25 10L25 9L24 9L24 10L23 10L23 8L20 8L20 5L21 5L21 4L22 4L22 3L21 3L21 2L20 2L20 1ZM10 3L10 4L11 4L11 3ZM15 3L15 4L19 4L19 5L20 5L20 4L21 4L21 3L20 3L20 4L19 4L19 3ZM8 5L8 7L9 7L9 5ZM0 8L0 9L5 9L5 8ZM29 8L29 9L30 9L30 8ZM31 8L31 10L33 10L33 9L32 9L32 8ZM1 11L1 12L2 12L2 11ZM15 11L15 12L16 12L16 11ZM30 11L30 12L31 12L31 11ZM12 13L12 14L13 14L13 15L12 15L12 17L16 17L16 18L15 18L15 19L16 19L16 18L17 18L17 17L18 17L18 19L19 19L19 18L20 18L20 20L17 20L17 21L16 21L16 20L15 20L15 21L14 21L14 20L13 20L13 21L12 21L12 19L14 19L14 18L11 18L11 17L10 17L10 18L11 18L11 19L10 19L10 20L9 20L9 22L10 22L10 20L11 20L11 21L12 21L12 22L15 22L15 24L17 24L17 25L18 25L18 24L17 24L17 22L20 22L20 20L23 20L23 18L24 18L24 19L25 19L25 18L24 18L24 17L25 17L25 15L24 15L24 16L22 16L22 15L21 15L21 16L20 16L20 15L18 15L18 14L17 14L17 15L16 15L16 14L13 14L13 13ZM19 13L19 14L20 14L20 13ZM21 13L21 14L22 14L22 13ZM23 13L23 14L24 14L24 13ZM13 15L13 16L16 16L16 17L17 17L17 16L18 16L18 17L20 17L20 18L21 18L21 17L22 17L22 18L23 18L23 17L22 17L22 16L21 16L21 17L20 17L20 16L18 16L18 15L17 15L17 16L16 16L16 15ZM28 16L28 17L29 17L29 16ZM6 18L6 19L7 19L7 18ZM6 20L6 21L8 21L8 20ZM15 21L15 22L16 22L16 21ZM21 21L21 23L20 23L20 24L22 24L22 22L24 22L24 21ZM6 23L6 24L7 24L7 23ZM12 23L12 25L13 25L13 26L15 26L15 28L16 28L16 29L19 29L19 28L16 28L16 27L17 27L17 26L15 26L15 25L14 25L14 24L13 24L13 23ZM25 25L25 28L28 28L28 25ZM29 25L29 28L30 28L30 27L31 27L31 26L30 26L30 25ZM26 26L26 27L27 27L27 26ZM25 29L25 30L28 30L28 31L29 31L29 30L28 30L28 29ZM18 30L18 31L19 31L19 30ZM30 30L30 31L31 31L31 30ZM0 0L0 7L7 7L7 0ZM1 1L1 6L6 6L6 1ZM2 2L2 5L5 5L5 2ZM26 0L26 7L33 7L33 0ZM27 1L27 6L32 6L32 1ZM28 2L28 5L31 5L31 2ZM0 26L0 33L7 33L7 26ZM1 27L1 32L6 32L6 27ZM2 28L2 31L5 31L5 28Z" fill="#000000"/></g></g></svg>
