<?xml version="1.0" encoding="UTF-8"?>
<svg xmlns="http://www.w3.org/2000/svg" version="1.1" width="200" height="200" viewBox="0 0 200 200"><rect x="0" y="0" width="200" height="200" fill="#ffffff"/><g transform="scale(5.128)"><g transform="translate(1,1)"><path fill-rule="evenodd" d="M9 0L9 1L10 1L10 2L12 2L12 3L17 3L17 4L11 4L11 3L10 3L10 4L9 4L9 2L8 2L8 8L9 8L9 9L7 9L7 8L2 8L2 9L1 9L1 8L0 8L0 10L1 10L1 11L0 11L0 13L1 13L1 15L0 15L0 16L2 16L2 17L4 17L4 18L0 18L0 19L1 19L1 20L0 20L0 21L1 21L1 22L0 22L0 23L5 23L5 24L1 24L1 25L0 25L0 29L1 29L1 26L2 26L2 25L3 25L3 26L6 26L6 27L7 27L7 26L6 26L6 25L9 25L9 26L8 26L8 27L9 27L9 29L8 29L8 28L6 28L6 29L8 29L8 30L9 30L9 29L11 29L11 30L10 30L10 35L11 35L11 34L12 34L12 33L13 33L13 35L12 35L12 37L15 37L15 36L13 36L13 35L15 35L15 34L17 34L17 33L15 33L15 32L17 32L17 30L15 30L15 29L19 29L19 30L18 30L18 31L19 31L19 32L18 32L18 33L23 33L23 34L22 34L22 35L21 35L21 34L20 34L20 35L21 35L21 36L22 36L22 35L23 35L23 34L24 34L24 36L23 36L23 37L24 37L24 36L25 36L25 37L26 37L26 36L25 36L25 34L24 34L24 33L26 33L26 34L28 34L28 36L27 36L27 37L28 37L28 36L29 36L29 37L37 37L37 30L36 30L36 29L37 29L37 28L36 28L36 29L35 29L35 28L34 28L34 27L32 27L32 25L33 25L33 24L34 24L34 25L35 25L35 24L34 24L34 21L35 21L35 20L34 20L34 19L33 19L33 20L32 20L32 21L31 21L31 20L30 20L30 19L32 19L32 18L30 18L30 19L29 19L29 17L33 17L33 18L35 18L35 19L36 19L36 20L37 20L37 18L36 18L36 16L37 16L37 14L36 14L36 13L37 13L37 10L36 10L36 9L35 9L35 8L30 8L30 9L29 9L29 8L25 8L25 5L24 5L24 4L26 4L26 7L27 7L27 6L28 6L28 7L29 7L29 3L27 3L27 4L26 4L26 3L24 3L24 2L25 2L25 1L22 1L22 0L21 0L21 1L20 1L20 2L21 2L21 3L20 3L20 4L18 4L18 3L19 3L19 1L18 1L18 0L17 0L17 1L18 1L18 3L17 3L17 2L15 2L15 0L13 0L13 1L10 1L10 0ZM28 0L28 1L26 1L26 2L28 2L28 1L29 1L29 0ZM13 1L13 2L14 2L14 1ZM21 3L21 4L20 4L20 5L18 5L18 6L17 6L17 7L16 7L16 5L13 5L13 7L12 7L12 6L11 6L11 7L10 7L10 6L9 6L9 8L11 8L11 9L12 9L12 10L11 10L11 11L8 11L8 12L7 12L7 11L5 11L5 10L7 10L7 9L5 9L5 10L2 10L2 11L1 11L1 13L2 13L2 14L3 14L3 15L4 15L4 14L5 14L5 15L6 15L6 16L5 16L5 17L6 17L6 18L4 18L4 19L3 19L3 20L1 20L1 21L3 21L3 22L8 22L8 21L12 21L12 22L13 22L13 23L12 23L12 24L10 24L10 23L11 23L11 22L10 22L10 23L9 23L9 25L10 25L10 26L9 26L9 27L10 27L10 28L11 28L11 29L14 29L14 28L15 28L15 26L14 26L14 28L13 28L13 27L12 27L12 25L15 25L15 22L17 22L17 21L16 21L16 19L17 19L17 20L18 20L18 21L22 21L22 23L24 23L24 25L25 25L25 26L22 26L22 25L23 25L23 24L22 24L22 25L21 25L21 23L20 23L20 22L18 22L18 23L20 23L20 24L17 24L17 25L16 25L16 26L17 26L17 27L16 27L16 28L19 28L19 27L18 27L18 25L19 25L19 26L20 26L20 27L21 27L21 26L22 26L22 27L23 27L23 29L22 29L22 28L20 28L20 29L21 29L21 32L23 32L23 33L24 33L24 30L23 30L23 29L24 29L24 28L26 28L26 29L27 29L27 26L29 26L29 27L28 27L28 28L29 28L29 27L30 27L30 26L31 26L31 25L32 25L32 24L31 24L31 25L30 25L30 24L29 24L29 22L31 22L31 21L29 21L29 19L28 19L28 20L27 20L27 18L28 18L28 17L29 17L29 16L30 16L30 14L31 14L31 15L33 15L33 17L34 17L34 16L35 16L35 15L36 15L36 14L35 14L35 13L34 13L34 12L36 12L36 11L35 11L35 9L30 9L30 12L31 12L31 13L29 13L29 16L28 16L28 15L27 15L27 14L28 14L28 13L27 13L27 12L28 12L28 11L29 11L29 9L26 9L26 11L25 11L25 10L24 10L24 9L23 9L23 8L24 8L24 5L23 5L23 4L22 4L22 3ZM21 4L21 5L20 5L20 7L19 7L19 6L18 6L18 7L17 7L17 8L15 8L15 10L14 10L14 9L13 9L13 8L14 8L14 7L15 7L15 6L14 6L14 7L13 7L13 8L12 8L12 7L11 7L11 8L12 8L12 9L13 9L13 10L14 10L14 11L13 11L13 12L9 12L9 13L12 13L12 14L11 14L11 15L10 15L10 14L6 14L6 15L7 15L7 16L6 16L6 17L7 17L7 16L9 16L9 15L10 15L10 18L11 18L11 20L12 20L12 19L13 19L13 22L15 22L15 21L14 21L14 19L13 19L13 18L12 18L12 16L13 16L13 17L15 17L15 18L17 18L17 19L18 19L18 18L17 18L17 17L16 17L16 16L17 16L17 15L16 15L16 14L17 14L17 13L19 13L19 14L18 14L18 15L19 15L19 16L18 16L18 17L19 17L19 16L20 16L20 17L23 17L23 18L26 18L26 17L27 17L27 15L26 15L26 14L27 14L27 13L26 13L26 12L25 12L25 11L24 11L24 12L23 12L23 11L20 11L20 10L23 10L23 9L22 9L22 8L23 8L23 6L22 6L22 4ZM27 4L27 5L28 5L28 4ZM21 6L21 7L20 7L20 8L17 8L17 9L16 9L16 10L18 10L18 9L19 9L19 10L20 10L20 9L21 9L21 7L22 7L22 6ZM27 10L27 11L28 11L28 10ZM33 10L33 11L32 11L32 13L31 13L31 14L32 14L32 13L33 13L33 12L34 12L34 10ZM2 11L2 13L3 13L3 14L4 14L4 13L5 13L5 11ZM14 11L14 12L13 12L13 16L14 16L14 14L16 14L16 13L17 13L17 12L19 12L19 11L16 11L16 13L15 13L15 11ZM3 12L3 13L4 13L4 12ZM6 12L6 13L7 13L7 12ZM20 12L20 13L21 13L21 14L19 14L19 15L21 15L21 16L23 16L23 17L25 17L25 16L26 16L26 15L25 15L25 14L26 14L26 13L24 13L24 14L23 14L23 13L22 13L22 12ZM22 14L22 15L23 15L23 16L25 16L25 15L23 15L23 14ZM33 14L33 15L34 15L34 14ZM15 15L15 16L16 16L16 15ZM8 17L8 18L6 18L6 19L7 19L7 20L5 20L5 19L4 19L4 20L3 20L3 21L4 21L4 20L5 20L5 21L8 21L8 18L9 18L9 17ZM20 18L20 19L21 19L21 20L22 20L22 21L23 21L23 22L24 22L24 21L26 21L26 24L25 24L25 25L26 25L26 26L27 26L27 25L26 25L26 24L28 24L28 25L29 25L29 24L28 24L28 22L29 22L29 21L28 21L28 22L27 22L27 21L26 21L26 20L25 20L25 19L21 19L21 18ZM9 19L9 20L10 20L10 19ZM23 20L23 21L24 21L24 20ZM33 20L33 21L32 21L32 22L33 22L33 21L34 21L34 20ZM36 22L36 24L37 24L37 22ZM6 23L6 24L7 24L7 23ZM20 25L20 26L21 26L21 25ZM10 26L10 27L11 27L11 28L12 28L12 27L11 27L11 26ZM35 26L35 27L37 27L37 26ZM2 27L2 29L3 29L3 28L4 28L4 29L5 29L5 27ZM33 28L33 29L34 29L34 28ZM29 29L29 32L32 32L32 29ZM12 30L12 32L13 32L13 33L14 33L14 31L15 31L15 30ZM19 30L19 31L20 31L20 30ZM22 30L22 31L23 31L23 30ZM25 30L25 32L26 32L26 33L27 33L27 32L28 32L28 30ZM30 30L30 31L31 31L31 30ZM35 30L35 31L34 31L34 32L36 32L36 30ZM8 31L8 35L9 35L9 31ZM26 31L26 32L27 32L27 31ZM28 33L28 34L29 34L29 35L30 35L30 36L31 36L31 35L33 35L33 34L34 34L34 36L36 36L36 35L35 35L35 34L36 34L36 33L33 33L33 34L32 34L32 33L31 33L31 34L29 34L29 33ZM16 35L16 36L17 36L17 37L19 37L19 35L18 35L18 36L17 36L17 35ZM8 36L8 37L11 37L11 36ZM0 0L0 7L7 7L7 0ZM1 1L1 6L6 6L6 1ZM2 2L2 5L5 5L5 2ZM30 0L30 7L37 7L37 0ZM31 1L31 6L36 6L36 1ZM32 2L32 5L35 5L35 2ZM0 30L0 37L7 37L7 30ZM1 31L1 36L6 36L6 31ZM2 32L2 35L5 35L5 32Z" fill="#000000"/></g></g></svg>
