<?xml version="1.0" encoding="UTF-8"?>
<svg xmlns="http://www.w3.org/2000/svg" version="1.1" width="200" height="200" viewBox="0 0 200 200"><rect x="0" y="0" width="200" height="200" fill="#ffffff"/><g transform="scale(5.128)"><g transform="translate(1,1)"><path fill-rule="evenodd" d="M8 0L8 3L9 3L9 1L11 1L11 0ZM13 0L13 1L12 1L12 2L10 2L10 4L8 4L8 5L10 5L10 4L11 4L11 5L12 5L12 4L13 4L13 6L12 6L12 7L11 7L11 6L10 6L10 7L9 7L9 6L8 6L8 7L9 7L9 8L3 8L3 10L4 10L4 9L7 9L7 10L6 10L6 11L2 11L2 9L1 9L1 8L0 8L0 9L1 9L1 13L0 13L0 14L1 14L1 13L3 13L3 14L2 14L2 16L0 16L0 20L1 20L1 21L0 21L0 22L1 22L1 23L0 23L0 29L1 29L1 27L2 27L2 28L3 28L3 29L5 29L5 28L6 28L6 29L8 29L8 34L9 34L9 36L8 36L8 37L10 37L10 36L11 36L11 37L12 37L12 36L13 36L13 35L14 35L14 36L16 36L16 37L17 37L17 36L18 36L18 37L21 37L21 36L18 36L18 35L19 35L19 34L18 34L18 33L19 33L19 32L18 32L18 33L17 33L17 31L20 31L20 30L23 30L23 31L24 31L24 33L22 33L22 31L21 31L21 32L20 32L20 34L22 34L22 37L24 37L24 33L25 33L25 32L27 32L27 33L28 33L28 35L27 35L27 34L26 34L26 35L27 35L27 36L26 36L26 37L29 37L29 36L28 36L28 35L30 35L30 34L31 34L31 33L34 33L34 32L33 32L33 31L34 31L34 30L33 30L33 28L32 28L32 27L31 27L31 26L30 26L30 27L29 27L29 26L28 26L28 25L23 25L23 24L20 24L20 23L22 23L22 22L23 22L23 23L24 23L24 21L25 21L25 22L26 22L26 24L27 24L27 23L28 23L28 24L29 24L29 25L32 25L32 26L34 26L34 25L32 25L32 24L33 24L33 23L34 23L34 24L35 24L35 23L37 23L37 22L35 22L35 21L34 21L34 22L33 22L33 19L35 19L35 16L37 16L37 14L36 14L36 13L37 13L37 10L36 10L36 9L37 9L37 8L34 8L34 9L33 9L33 8L32 8L32 9L31 9L31 12L30 12L30 13L32 13L32 14L29 14L29 13L28 13L28 12L29 12L29 11L28 11L28 10L29 10L29 9L30 9L30 8L29 8L29 9L28 9L28 7L29 7L29 6L28 6L28 7L27 7L27 5L26 5L26 7L25 7L25 5L22 5L22 2L23 2L23 4L27 4L27 3L28 3L28 2L27 2L27 3L26 3L26 0L25 0L25 1L24 1L24 0L19 0L19 1L18 1L18 0L16 0L16 1L14 1L14 0ZM28 0L28 1L29 1L29 0ZM16 1L16 2L17 2L17 3L19 3L19 4L17 4L17 7L18 7L18 6L19 6L19 7L20 7L20 9L19 9L19 8L16 8L16 6L15 6L15 5L16 5L16 4L14 4L14 6L13 6L13 7L12 7L12 8L13 8L13 7L14 7L14 9L13 9L13 11L12 11L12 10L11 10L11 11L10 11L10 10L9 10L9 9L8 9L8 10L7 10L7 11L6 11L6 12L5 12L5 13L4 13L4 12L3 12L3 13L4 13L4 16L3 16L3 18L2 18L2 17L1 17L1 19L2 19L2 21L1 21L1 22L2 22L2 23L1 23L1 24L2 24L2 23L4 23L4 24L3 24L3 25L4 25L4 26L2 26L2 25L1 25L1 26L2 26L2 27L3 27L3 28L5 28L5 27L4 27L4 26L5 26L5 25L6 25L6 26L7 26L7 27L6 27L6 28L7 28L7 27L8 27L8 29L11 29L11 24L12 24L12 23L13 23L13 24L15 24L15 21L16 21L16 22L17 22L17 23L16 23L16 25L15 25L15 26L16 26L16 27L14 27L14 26L13 26L13 25L12 25L12 26L13 26L13 27L12 27L12 28L14 28L14 29L15 29L15 28L16 28L16 27L17 27L17 29L18 29L18 30L19 30L19 29L18 29L18 28L19 28L19 27L20 27L20 28L21 28L21 29L22 29L22 28L23 28L23 27L24 27L24 28L26 28L26 27L27 27L27 28L29 28L29 27L27 27L27 26L26 26L26 27L24 27L24 26L23 26L23 27L21 27L21 25L20 25L20 26L19 26L19 27L17 27L17 26L18 26L18 25L19 25L19 24L18 24L18 23L20 23L20 22L19 22L19 21L18 21L18 22L17 22L17 21L16 21L16 20L15 20L15 19L16 19L16 18L17 18L17 20L18 20L18 18L20 18L20 19L21 19L21 22L22 22L22 21L24 21L24 19L23 19L23 20L22 20L22 18L21 18L21 16L19 16L19 15L18 15L18 14L21 14L21 15L25 15L25 16L27 16L27 17L28 17L28 16L31 16L31 15L29 15L29 14L28 14L28 16L27 16L27 13L26 13L26 12L28 12L28 11L25 11L25 10L24 10L24 9L21 9L21 8L22 8L22 5L21 5L21 7L20 7L20 5L19 5L19 4L21 4L21 2L22 2L22 1L20 1L20 3L19 3L19 2L17 2L17 1ZM24 2L24 3L25 3L25 2ZM11 3L11 4L12 4L12 3ZM28 4L28 5L29 5L29 4ZM14 6L14 7L15 7L15 6ZM23 6L23 8L24 8L24 6ZM10 8L10 9L11 9L11 8ZM15 8L15 9L16 9L16 10L15 10L15 11L16 11L16 12L14 12L14 13L13 13L13 12L10 12L10 11L9 11L9 10L8 10L8 11L9 11L9 12L8 12L8 14L6 14L6 15L5 15L5 16L4 16L4 17L7 17L7 18L5 18L5 20L4 20L4 19L3 19L3 22L4 22L4 23L7 23L7 24L6 24L6 25L7 25L7 26L8 26L8 27L10 27L10 26L8 26L8 24L9 24L9 23L8 23L8 22L9 22L9 21L10 21L10 20L9 20L9 21L7 21L7 20L6 20L6 19L11 19L11 21L12 21L12 22L13 22L13 23L14 23L14 22L13 22L13 21L12 21L12 20L13 20L13 18L14 18L14 19L15 19L15 17L16 17L16 15L17 15L17 12L18 12L18 13L19 13L19 12L20 12L20 13L21 13L21 14L22 14L22 13L21 13L21 10L19 10L19 9L18 9L18 10L19 10L19 12L18 12L18 11L17 11L17 9L16 9L16 8ZM25 8L25 9L26 9L26 10L27 10L27 8ZM23 10L23 11L24 11L24 12L23 12L23 14L24 14L24 13L25 13L25 15L26 15L26 13L25 13L25 11L24 11L24 10ZM32 10L32 13L33 13L33 10ZM34 10L34 11L36 11L36 10ZM6 12L6 13L7 13L7 12ZM9 12L9 14L8 14L8 15L6 15L6 16L7 16L7 17L8 17L8 18L9 18L9 17L10 17L10 18L11 18L11 17L10 17L10 16L9 16L9 15L10 15L10 14L11 14L11 16L12 16L12 18L13 18L13 16L12 16L12 15L13 15L13 13L12 13L12 14L11 14L11 13L10 13L10 12ZM34 12L34 14L35 14L35 15L36 15L36 14L35 14L35 13L36 13L36 12ZM32 14L32 17L29 17L29 18L32 18L32 19L33 19L33 17L34 17L34 16L33 16L33 14ZM17 16L17 18L18 18L18 17L19 17L19 16ZM23 17L23 18L25 18L25 17ZM36 18L36 20L37 20L37 18ZM27 19L27 20L25 20L25 21L26 21L26 22L27 22L27 21L28 21L28 23L29 23L29 24L31 24L31 23L29 23L29 22L31 22L31 21L28 21L28 20L29 20L29 19ZM30 19L30 20L31 20L31 19ZM6 21L6 22L7 22L7 21ZM10 22L10 23L11 23L11 22ZM32 22L32 23L33 23L33 22ZM34 22L34 23L35 23L35 22ZM4 24L4 25L5 25L5 24ZM17 24L17 25L18 25L18 24ZM36 24L36 25L37 25L37 24ZM35 26L35 27L34 27L34 29L37 29L37 28L35 28L35 27L37 27L37 26ZM12 29L12 30L13 30L13 29ZM23 29L23 30L24 30L24 29ZM25 29L25 31L26 31L26 29ZM27 29L27 31L28 31L28 29ZM29 29L29 32L32 32L32 29ZM14 30L14 31L15 31L15 35L16 35L16 36L17 36L17 33L16 33L16 31L17 31L17 30L16 30L16 31L15 31L15 30ZM30 30L30 31L31 31L31 30ZM35 30L35 32L36 32L36 35L34 35L34 36L33 36L33 34L32 34L32 35L31 35L31 36L30 36L30 37L31 37L31 36L33 36L33 37L34 37L34 36L36 36L36 37L37 37L37 32L36 32L36 31L37 31L37 30ZM9 31L9 32L10 32L10 31ZM11 32L11 33L13 33L13 34L14 34L14 32ZM9 33L9 34L10 34L10 33ZM11 34L11 36L12 36L12 34ZM0 0L0 7L7 7L7 0ZM1 1L1 6L6 6L6 1ZM2 2L2 5L5 5L5 2ZM30 0L30 7L37 7L37 0ZM31 1L31 6L36 6L36 1ZM32 2L32 5L35 5L35 2ZM0 30L0 37L7 37L7 30ZM1 31L1 36L6 36L6 31ZM2 32L2 35L5 35L5 32Z" fill="#000000"/></g></g></svg>
