<?xml version="1.0" encoding="UTF-8"?>
<svg xmlns="http://www.w3.org/2000/svg" version="1.1" width="200" height="200" viewBox="0 0 200 200"><rect x="0" y="0" width="200" height="200" fill="#ffffff"/><g transform="scale(5.128)"><g transform="translate(1,1)"><path fill-rule="evenodd" d="M8 0L8 1L9 1L9 0ZM13 0L13 1L11 1L11 2L10 2L10 3L8 3L8 8L6 8L6 9L5 9L5 8L4 8L4 9L2 9L2 10L0 10L0 12L1 12L1 13L0 13L0 15L1 15L1 14L5 14L5 16L4 16L4 15L2 15L2 16L1 16L1 17L2 17L2 19L4 19L4 17L5 17L5 20L2 20L2 21L0 21L0 22L2 22L2 23L3 23L3 21L7 21L7 20L6 20L6 19L7 19L7 18L8 18L8 16L9 16L9 15L10 15L10 16L14 16L14 17L13 17L13 19L12 19L12 17L11 17L11 18L9 18L9 19L10 19L10 20L8 20L8 21L9 21L9 22L8 22L8 23L7 23L7 22L4 22L4 23L7 23L7 24L4 24L4 25L3 25L3 27L2 27L2 28L0 28L0 29L2 29L2 28L3 28L3 29L4 29L4 28L5 28L5 29L7 29L7 28L10 28L10 29L12 29L12 30L11 30L11 33L13 33L13 36L14 36L14 37L16 37L16 36L15 36L15 33L16 33L16 35L17 35L17 37L22 37L22 36L24 36L24 34L26 34L26 33L27 33L27 32L26 32L26 33L23 33L23 32L24 32L24 30L25 30L25 31L27 31L27 30L26 30L26 29L27 29L27 28L26 28L26 29L25 29L25 28L24 28L24 29L23 29L23 28L22 28L22 27L25 27L25 26L27 26L27 27L28 27L28 33L29 33L29 35L30 35L30 36L29 36L29 37L31 37L31 36L34 36L34 37L37 37L37 36L36 36L36 35L35 35L35 34L34 34L34 33L36 33L36 34L37 34L37 31L36 31L36 29L37 29L37 27L35 27L35 23L36 23L36 22L33 22L33 21L35 21L35 20L36 20L36 19L33 19L33 21L32 21L32 20L31 20L31 19L32 19L32 18L33 18L33 17L35 17L35 18L36 18L36 16L35 16L35 15L36 15L36 13L37 13L37 12L36 12L36 11L35 11L35 10L36 10L36 9L37 9L37 8L36 8L36 9L35 9L35 10L34 10L34 8L29 8L29 4L27 4L27 5L28 5L28 9L26 9L26 10L25 10L25 8L24 8L24 7L25 7L25 6L26 6L26 8L27 8L27 6L26 6L26 3L25 3L25 2L26 2L26 0L25 0L25 1L22 1L22 2L21 2L21 3L22 3L22 2L24 2L24 3L25 3L25 5L24 5L24 4L23 4L23 5L24 5L24 7L23 7L23 6L22 6L22 7L21 7L21 6L20 6L20 5L19 5L19 3L18 3L18 1L17 1L17 2L16 2L16 1L15 1L15 0ZM19 0L19 2L20 2L20 1L21 1L21 0ZM27 0L27 1L28 1L28 0ZM13 1L13 2L11 2L11 3L10 3L10 4L9 4L9 7L10 7L10 9L9 9L9 10L7 10L7 9L6 9L6 10L7 10L7 11L4 11L4 10L5 10L5 9L4 9L4 10L2 10L2 11L1 11L1 12L2 12L2 13L3 13L3 12L2 12L2 11L4 11L4 13L5 13L5 14L8 14L8 15L6 15L6 16L5 16L5 17L6 17L6 18L7 18L7 17L6 17L6 16L8 16L8 15L9 15L9 14L10 14L10 15L11 15L11 12L13 12L13 15L14 15L14 16L15 16L15 20L17 20L17 19L18 19L18 20L20 20L20 21L18 21L18 22L17 22L17 21L16 21L16 24L15 24L15 23L14 23L14 25L13 25L13 23L12 23L12 22L14 22L14 21L11 21L11 20L10 20L10 22L11 22L11 23L12 23L12 24L11 24L11 26L10 26L10 23L9 23L9 27L11 27L11 28L12 28L12 29L14 29L14 30L12 30L12 31L14 31L14 32L15 32L15 29L16 29L16 33L18 33L18 36L21 36L21 35L23 35L23 33L22 33L22 31L23 31L23 29L22 29L22 30L21 30L21 32L19 32L19 33L18 33L18 32L17 32L17 30L18 30L18 31L20 31L20 29L21 29L21 28L19 28L19 29L16 29L16 28L15 28L15 27L14 27L14 25L15 25L15 26L16 26L16 27L17 27L17 26L18 26L18 25L20 25L20 27L21 27L21 25L23 25L23 24L24 24L24 23L22 23L22 24L21 24L21 23L20 23L20 21L21 21L21 22L23 22L23 21L24 21L24 22L25 22L25 25L24 25L24 26L25 26L25 25L27 25L27 24L26 24L26 23L27 23L27 21L29 21L29 22L30 22L30 23L31 23L31 22L32 22L32 21L29 21L29 20L30 20L30 19L31 19L31 17L33 17L33 16L34 16L34 15L33 15L33 14L32 14L32 13L33 13L33 11L32 11L32 13L29 13L29 14L28 14L28 15L23 15L23 13L24 13L24 14L25 14L25 13L26 13L26 14L27 14L27 13L28 13L28 11L29 11L29 12L30 12L30 10L31 10L31 9L30 9L30 10L29 10L29 9L28 9L28 11L27 11L27 10L26 10L26 11L25 11L25 10L24 10L24 9L23 9L23 7L22 7L22 8L21 8L21 7L20 7L20 6L19 6L19 5L18 5L18 6L17 6L17 4L18 4L18 3L16 3L16 6L15 6L15 9L14 9L14 8L11 8L11 7L12 7L12 6L13 6L13 7L14 7L14 6L13 6L13 5L14 5L14 4L15 4L15 3L14 3L14 4L13 4L13 2L14 2L14 1ZM27 2L27 3L29 3L29 2ZM10 4L10 5L11 5L11 4ZM10 6L10 7L11 7L11 6ZM16 6L16 9L17 9L17 6ZM18 6L18 7L19 7L19 9L18 9L18 10L17 10L17 11L16 11L16 10L15 10L15 12L14 12L14 9L13 9L13 12L14 12L14 14L15 14L15 15L16 15L16 16L18 16L18 17L19 17L19 18L20 18L20 19L21 19L21 21L23 21L23 20L22 20L22 19L24 19L24 18L25 18L25 17L23 17L23 15L22 15L22 17L20 17L20 16L21 16L21 14L22 14L22 13L23 13L23 12L24 12L24 13L25 13L25 11L24 11L24 10L23 10L23 9L22 9L22 11L20 11L20 9L21 9L21 8L20 8L20 7L19 7L19 6ZM0 8L0 9L1 9L1 8ZM10 9L10 10L9 10L9 11L10 11L10 10L11 10L11 11L12 11L12 9ZM7 11L7 12L5 12L5 13L9 13L9 12L8 12L8 11ZM22 11L22 12L23 12L23 11ZM15 12L15 13L16 13L16 15L17 15L17 14L18 14L18 15L20 15L20 14L21 14L21 13L20 13L20 12L19 12L19 13L16 13L16 12ZM26 12L26 13L27 13L27 12ZM34 13L34 14L35 14L35 13ZM29 14L29 17L28 17L28 16L26 16L26 17L27 17L27 19L30 19L30 18L29 18L29 17L31 17L31 16L33 16L33 15L30 15L30 14ZM2 16L2 17L4 17L4 16ZM16 17L16 19L17 19L17 17ZM22 17L22 18L21 18L21 19L22 19L22 18L23 18L23 17ZM0 18L0 20L1 20L1 18ZM13 19L13 20L14 20L14 19ZM24 20L24 21L25 21L25 20ZM26 20L26 21L27 21L27 20ZM18 22L18 23L19 23L19 22ZM0 24L0 26L2 26L2 24ZM7 24L7 25L4 25L4 26L5 26L5 28L7 28L7 27L6 27L6 26L7 26L7 25L8 25L8 24ZM16 24L16 25L17 25L17 24ZM20 24L20 25L21 25L21 24ZM28 24L28 25L29 25L29 26L30 26L30 27L29 27L29 28L31 28L31 26L32 26L32 27L33 27L33 30L34 30L34 31L35 31L35 32L36 32L36 31L35 31L35 30L34 30L34 25L33 25L33 24L32 24L32 25L30 25L30 24ZM36 24L36 25L37 25L37 24ZM32 25L32 26L33 26L33 25ZM11 26L11 27L12 27L12 28L14 28L14 27L13 27L13 26ZM35 28L35 29L36 29L36 28ZM8 29L8 31L9 31L9 32L8 32L8 33L9 33L9 34L10 34L10 30L9 30L9 29ZM29 29L29 32L32 32L32 29ZM30 30L30 31L31 31L31 30ZM33 32L33 33L32 33L32 34L31 34L31 35L34 35L34 34L33 34L33 33L34 33L34 32ZM19 33L19 34L20 34L20 35L21 35L21 34L22 34L22 33ZM10 35L10 36L11 36L11 35ZM27 35L27 36L26 36L26 37L28 37L28 35ZM8 36L8 37L9 37L9 36ZM0 0L0 7L7 7L7 0ZM1 1L1 6L6 6L6 1ZM2 2L2 5L5 5L5 2ZM30 0L30 7L37 7L37 0ZM31 1L31 6L36 6L36 1ZM32 2L32 5L35 5L35 2ZM0 30L0 37L7 37L7 30ZM1 31L1 36L6 36L6 31ZM2 32L2 35L5 35L5 32Z" fill="#000000"/></g></g></svg>
