<?xml version="1.0" encoding="UTF-8"?>
<svg xmlns="http://www.w3.org/2000/svg" version="1.1" width="200" height="200" viewBox="0 0 200 200"><rect x="0" y="0" width="200" height="200" fill="#ffffff"/><g transform="scale(5.128)"><g transform="translate(1,1)"><path fill-rule="evenodd" d="M9 0L9 2L8 2L8 8L9 8L9 9L8 9L8 10L6 10L6 9L7 9L7 8L2 8L2 9L1 9L1 8L0 8L0 11L1 11L1 14L2 14L2 11L4 11L4 10L5 10L5 12L6 12L6 13L7 13L7 14L5 14L5 13L4 13L4 12L3 12L3 16L2 16L2 15L1 15L1 17L0 17L0 19L1 19L1 22L0 22L0 23L1 23L1 25L0 25L0 29L1 29L1 26L2 26L2 27L3 27L3 29L5 29L5 27L7 27L7 26L11 26L11 27L12 27L12 26L13 26L13 25L11 25L11 24L10 24L10 23L8 23L8 22L3 22L3 23L4 23L4 24L3 24L3 26L2 26L2 23L1 23L1 22L2 22L2 19L1 19L1 18L2 18L2 17L3 17L3 18L4 18L4 17L7 17L7 18L6 18L6 19L3 19L3 20L4 20L4 21L5 21L5 20L6 20L6 21L7 21L7 20L8 20L8 21L10 21L10 22L11 22L11 21L12 21L12 22L13 22L13 20L15 20L15 19L14 19L14 18L12 18L12 17L10 17L10 18L9 18L9 19L10 19L10 18L11 18L11 19L13 19L13 20L8 20L8 17L9 17L9 16L8 16L8 13L9 13L9 10L10 10L10 12L11 12L11 13L10 13L10 14L9 14L9 15L10 15L10 16L11 16L11 15L12 15L12 16L13 16L13 17L14 17L14 15L15 15L15 18L17 18L17 17L16 17L16 14L17 14L17 13L19 13L19 14L18 14L18 15L19 15L19 16L18 16L18 17L19 17L19 16L20 16L20 17L23 17L23 18L24 18L24 19L21 19L21 18L20 18L20 19L21 19L21 20L20 20L20 21L19 21L19 19L18 19L18 20L17 20L17 19L16 19L16 21L17 21L17 22L15 22L15 21L14 21L14 22L15 22L15 23L17 23L17 24L14 24L14 28L15 28L15 29L16 29L16 30L15 30L15 32L14 32L14 34L17 34L17 35L16 35L16 36L17 36L17 37L19 37L19 35L18 35L18 34L17 34L17 33L15 33L15 32L17 32L17 29L18 29L18 31L19 31L19 32L18 32L18 33L23 33L23 34L22 34L22 35L21 35L21 34L20 34L20 35L21 35L21 36L22 36L22 35L23 35L23 34L24 34L24 35L25 35L25 34L24 34L24 33L26 33L26 34L28 34L28 35L27 35L27 36L29 36L29 37L37 37L37 32L34 32L34 31L35 31L35 30L36 30L36 31L37 31L37 30L36 30L36 29L37 29L37 28L36 28L36 29L35 29L35 28L34 28L34 27L37 27L37 26L34 26L34 25L35 25L35 24L34 24L34 21L35 21L35 20L34 20L34 19L33 19L33 18L34 18L34 17L35 17L35 19L36 19L36 20L37 20L37 18L36 18L36 16L37 16L37 14L36 14L36 13L37 13L37 10L36 10L36 9L35 9L35 8L30 8L30 9L28 9L28 8L27 8L27 6L28 6L28 7L29 7L29 2L28 2L28 1L27 1L27 0L26 0L26 2L27 2L27 4L26 4L26 3L24 3L24 2L25 2L25 1L22 1L22 0L21 0L21 1L20 1L20 2L21 2L21 3L22 3L22 4L19 4L19 1L17 1L17 0L16 0L16 2L15 2L15 0L14 0L14 1L13 1L13 0L12 0L12 1L11 1L11 0ZM10 1L10 2L11 2L11 1ZM12 2L12 4L13 4L13 8L16 8L16 6L17 6L17 7L18 7L18 6L19 6L19 8L17 8L17 9L16 9L16 10L17 10L17 11L16 11L16 13L15 13L15 9L10 9L10 10L14 10L14 11L12 11L12 12L14 12L14 13L15 13L15 14L16 14L16 13L17 13L17 12L18 12L18 10L17 10L17 9L19 9L19 10L20 10L20 11L23 11L23 13L22 13L22 12L21 12L21 13L20 13L20 14L19 14L19 15L20 15L20 14L21 14L21 16L23 16L23 17L24 17L24 18L25 18L25 19L24 19L24 20L23 20L23 21L22 21L22 20L21 20L21 21L20 21L20 22L19 22L19 21L18 21L18 23L19 23L19 24L17 24L17 25L16 25L16 26L18 26L18 27L16 27L16 29L17 29L17 28L18 28L18 29L19 29L19 28L18 28L18 27L19 27L19 26L20 26L20 27L21 27L21 26L22 26L22 27L24 27L24 26L25 26L25 28L26 28L26 29L25 29L25 32L26 32L26 33L27 33L27 32L28 32L28 30L27 30L27 32L26 32L26 29L27 29L27 26L28 26L28 27L30 27L30 26L31 26L31 25L32 25L32 27L33 27L33 25L34 25L34 24L33 24L33 25L32 25L32 24L31 24L31 25L30 25L30 24L29 24L29 22L31 22L31 21L32 21L32 22L33 22L33 21L34 21L34 20L33 20L33 19L32 19L32 18L33 18L33 17L34 17L34 16L35 16L35 15L36 15L36 14L35 14L35 13L32 13L32 12L36 12L36 11L35 11L35 9L30 9L30 12L31 12L31 13L29 13L29 15L30 15L30 16L28 16L28 15L26 15L26 13L27 13L27 14L28 14L28 13L27 13L27 12L28 12L28 11L29 11L29 10L28 10L28 9L27 9L27 8L26 8L26 6L25 6L25 8L26 8L26 9L27 9L27 10L26 10L26 11L25 11L25 10L24 10L24 9L23 9L23 8L24 8L24 5L26 5L26 4L24 4L24 5L23 5L23 4L22 4L22 6L21 6L21 5L19 5L19 4L18 4L18 6L17 6L17 5L16 5L16 4L13 4L13 3L15 3L15 2ZM16 2L16 3L18 3L18 2ZM9 3L9 5L10 5L10 4L11 4L11 3ZM27 4L27 5L28 5L28 4ZM14 5L14 7L15 7L15 6L16 6L16 5ZM9 6L9 7L10 7L10 8L12 8L12 6L11 6L11 7L10 7L10 6ZM20 6L20 7L21 7L21 9L20 9L20 8L19 8L19 9L20 9L20 10L23 10L23 9L22 9L22 8L23 8L23 6L22 6L22 7L21 7L21 6ZM3 9L3 10L4 10L4 9ZM27 10L27 11L28 11L28 10ZM31 10L31 12L32 12L32 10ZM33 10L33 11L34 11L34 10ZM6 11L6 12L7 12L7 11ZM24 11L24 13L23 13L23 14L22 14L22 15L23 15L23 16L24 16L24 17L25 17L25 18L27 18L27 21L26 21L26 20L24 20L24 21L23 21L23 22L24 22L24 21L26 21L26 22L27 22L27 24L28 24L28 22L29 22L29 21L31 21L31 20L30 20L30 19L31 19L31 18L32 18L32 17L33 17L33 15L34 15L34 14L33 14L33 15L31 15L31 14L32 14L32 13L31 13L31 14L30 14L30 15L31 15L31 16L30 16L30 17L28 17L28 18L27 18L27 17L26 17L26 16L25 16L25 15L23 15L23 14L24 14L24 13L26 13L26 12L25 12L25 11ZM11 13L11 14L12 14L12 13ZM13 14L13 15L14 15L14 14ZM5 15L5 16L7 16L7 15ZM3 16L3 17L4 17L4 16ZM31 16L31 17L30 17L30 18L28 18L28 19L30 19L30 18L31 18L31 17L32 17L32 16ZM6 19L6 20L7 20L7 19ZM28 20L28 21L27 21L27 22L28 22L28 21L29 21L29 20ZM32 20L32 21L33 21L33 20ZM21 21L21 22L20 22L20 24L21 24L21 25L20 25L20 26L21 26L21 25L22 25L22 26L24 26L24 25L26 25L26 26L27 26L27 25L26 25L26 24L24 24L24 23L22 23L22 21ZM36 22L36 23L37 23L37 22ZM6 23L6 24L4 24L4 27L5 27L5 25L6 25L6 26L7 26L7 25L6 25L6 24L7 24L7 23ZM12 23L12 24L13 24L13 23ZM22 24L22 25L23 25L23 24ZM36 24L36 25L37 25L37 24ZM18 25L18 26L19 26L19 25ZM28 25L28 26L29 26L29 25ZM8 27L8 28L10 28L10 27ZM6 28L6 29L7 29L7 28ZM11 28L11 30L10 30L10 31L8 31L8 35L9 35L9 36L8 36L8 37L11 37L11 36L12 36L12 37L15 37L15 35L14 35L14 36L12 36L12 35L11 35L11 36L10 36L10 34L13 34L13 33L11 33L11 32L10 32L10 31L13 31L13 29L12 29L12 28ZM20 28L20 29L21 29L21 32L23 32L23 33L24 33L24 30L23 30L23 29L24 29L24 28L23 28L23 29L22 29L22 28ZM33 28L33 29L34 29L34 28ZM8 29L8 30L9 30L9 29ZM29 29L29 32L32 32L32 29ZM19 30L19 31L20 31L20 30ZM22 30L22 31L23 31L23 30ZM30 30L30 31L31 31L31 30ZM9 32L9 33L10 33L10 32ZM28 33L28 34L29 34L29 35L30 35L30 36L31 36L31 35L33 35L33 34L32 34L32 33L31 33L31 34L29 34L29 33ZM35 33L35 34L34 34L34 36L36 36L36 35L35 35L35 34L36 34L36 33ZM17 35L17 36L18 36L18 35ZM25 36L25 37L26 37L26 36ZM0 0L0 7L7 7L7 0ZM1 1L1 6L6 6L6 1ZM2 2L2 5L5 5L5 2ZM30 0L30 7L37 7L37 0ZM31 1L31 6L36 6L36 1ZM32 2L32 5L35 5L35 2ZM0 30L0 37L7 37L7 30ZM1 31L1 36L6 36L6 31ZM2 32L2 35L5 35L5 32Z" fill="#000000"/></g></g></svg>
