<?xml version="1.0" encoding="UTF-8"?>
<svg xmlns="http://www.w3.org/2000/svg" version="1.1" width="200" height="200" viewBox="0 0 200 200"><rect x="0" y="0" width="200" height="200" fill="#ffffff"/><g transform="scale(5.128)"><g transform="translate(1,1)"><path fill-rule="evenodd" d="M8 0L8 3L10 3L10 4L11 4L11 5L12 5L12 7L11 7L11 6L10 6L10 5L9 5L9 4L8 4L8 5L9 5L9 6L8 6L8 7L9 7L9 6L10 6L10 8L11 8L11 9L9 9L9 8L3 8L3 10L1 10L1 8L0 8L0 14L2 14L2 13L5 13L5 12L6 12L6 13L7 13L7 14L5 14L5 15L7 15L7 16L4 16L4 15L2 15L2 16L1 16L1 17L4 17L4 18L5 18L5 20L6 20L6 21L7 21L7 22L5 22L5 21L4 21L4 19L3 19L3 18L2 18L2 19L1 19L1 20L0 20L0 21L3 21L3 22L0 22L0 29L1 29L1 27L2 27L2 29L4 29L4 28L5 28L5 29L8 29L8 34L9 34L9 36L8 36L8 37L10 37L10 36L11 36L11 37L12 37L12 36L13 36L13 35L12 35L12 34L13 34L13 33L14 33L14 32L15 32L15 31L16 31L16 33L17 33L17 31L20 31L20 27L18 27L18 29L17 29L17 31L16 31L16 28L17 28L17 27L16 27L16 26L15 26L15 25L16 25L16 22L18 22L18 21L19 21L19 22L21 22L21 23L22 23L22 22L23 22L23 23L24 23L24 21L25 21L25 20L27 20L27 22L25 22L25 23L26 23L26 25L23 25L23 24L19 24L19 23L18 23L18 24L17 24L17 25L18 25L18 26L20 26L20 25L21 25L21 27L23 27L23 26L24 26L24 30L23 30L23 28L22 28L22 29L21 29L21 30L23 30L23 31L24 31L24 32L26 32L26 35L27 35L27 33L28 33L28 35L30 35L30 34L31 34L31 33L34 33L34 36L33 36L33 34L32 34L32 35L31 35L31 36L30 36L30 37L31 37L31 36L33 36L33 37L34 37L34 36L36 36L36 37L37 37L37 30L35 30L35 32L36 32L36 35L35 35L35 33L34 33L34 32L33 32L33 31L34 31L34 30L33 30L33 29L37 29L37 28L35 28L35 27L37 27L37 26L35 26L35 25L34 25L34 27L33 27L33 28L32 28L32 27L31 27L31 26L30 26L30 27L29 27L29 25L32 25L32 26L33 26L33 25L32 25L32 24L33 24L33 23L34 23L34 24L36 24L36 25L37 25L37 24L36 24L36 23L37 23L37 22L35 22L35 21L34 21L34 22L33 22L33 19L35 19L35 18L32 18L32 17L31 17L31 16L32 16L32 14L33 14L33 16L34 16L34 17L35 17L35 16L37 16L37 14L36 14L36 13L37 13L37 10L36 10L36 9L37 9L37 8L34 8L34 9L33 9L33 8L32 8L32 9L31 9L31 12L30 12L30 13L32 13L32 14L29 14L29 13L28 13L28 10L29 10L29 9L30 9L30 8L29 8L29 9L28 9L28 7L29 7L29 6L28 6L28 7L27 7L27 5L22 5L22 2L23 2L23 4L27 4L27 3L29 3L29 0L28 0L28 2L27 2L27 3L26 3L26 0L25 0L25 1L24 1L24 0L19 0L19 2L18 2L18 0L16 0L16 1L15 1L15 0L14 0L14 1L13 1L13 5L12 5L12 4L11 4L11 3L12 3L12 2L11 2L11 1L12 1L12 0L11 0L11 1L10 1L10 2L9 2L9 0ZM14 1L14 2L15 2L15 4L14 4L14 6L13 6L13 7L12 7L12 9L13 9L13 11L14 11L14 10L16 10L16 9L17 9L17 11L19 11L19 10L21 10L21 12L19 12L19 13L18 13L18 12L16 12L16 11L15 11L15 12L12 12L12 10L11 10L11 13L12 13L12 15L13 15L13 16L11 16L11 14L7 14L7 15L8 15L8 16L7 16L7 17L6 17L6 18L9 18L9 17L11 17L11 19L12 19L12 17L13 17L13 18L14 18L14 19L13 19L13 20L14 20L14 19L16 19L16 18L17 18L17 20L15 20L15 21L17 21L17 20L18 20L18 19L19 19L19 18L20 18L20 19L21 19L21 22L22 22L22 21L24 21L24 20L22 20L22 18L21 18L21 15L25 15L25 16L26 16L26 15L27 15L27 13L26 13L26 12L27 12L27 11L25 11L25 10L24 10L24 9L21 9L21 8L22 8L22 5L21 5L21 4L20 4L20 3L21 3L21 2L22 2L22 1L20 1L20 3L18 3L18 2L17 2L17 1L16 1L16 2L15 2L15 1ZM24 2L24 3L25 3L25 2ZM16 3L16 4L15 4L15 5L17 5L17 4L18 4L18 5L20 5L20 7L19 7L19 6L18 6L18 7L17 7L17 6L16 6L16 7L17 7L17 8L19 8L19 9L18 9L18 10L19 10L19 9L20 9L20 8L21 8L21 5L20 5L20 4L18 4L18 3ZM28 4L28 5L29 5L29 4ZM14 6L14 8L13 8L13 9L14 9L14 8L15 8L15 9L16 9L16 8L15 8L15 6ZM23 6L23 8L24 8L24 6ZM25 6L25 7L26 7L26 6ZM25 8L25 9L26 9L26 10L27 10L27 8ZM5 9L5 11L6 11L6 12L7 12L7 11L8 11L8 13L9 13L9 12L10 12L10 10L9 10L9 9L8 9L8 10L7 10L7 9ZM3 10L3 11L1 11L1 13L2 13L2 12L4 12L4 10ZM6 10L6 11L7 11L7 10ZM23 10L23 14L24 14L24 13L25 13L25 15L26 15L26 13L25 13L25 12L24 12L24 10ZM34 10L34 11L32 11L32 13L34 13L34 14L35 14L35 15L36 15L36 14L35 14L35 13L36 13L36 12L34 12L34 11L36 11L36 10ZM15 12L15 13L13 13L13 14L15 14L15 15L17 15L17 14L16 14L16 12ZM20 13L20 14L18 14L18 15L19 15L19 16L17 16L17 18L18 18L18 17L19 17L19 16L20 16L20 15L21 15L21 14L22 14L22 13ZM28 14L28 16L27 16L27 17L28 17L28 20L29 20L29 18L31 18L31 19L30 19L30 20L31 20L31 19L32 19L32 18L31 18L31 17L29 17L29 16L30 16L30 15L29 15L29 14ZM9 15L9 16L10 16L10 15ZM13 16L13 17L14 17L14 16ZM15 16L15 17L16 17L16 16ZM23 17L23 18L24 18L24 19L25 19L25 17ZM36 18L36 20L37 20L37 18ZM2 19L2 20L3 20L3 19ZM6 19L6 20L7 20L7 21L9 21L9 19L8 19L8 20L7 20L7 19ZM11 21L11 24L10 24L10 22L8 22L8 23L5 23L5 22L3 22L3 23L1 23L1 26L3 26L3 28L4 28L4 27L5 27L5 28L8 28L8 29L9 29L9 31L10 31L10 32L9 32L9 34L11 34L11 33L10 33L10 32L11 32L11 31L12 31L12 33L13 33L13 32L14 32L14 31L12 31L12 30L13 30L13 28L12 28L12 27L11 27L11 25L12 25L12 26L13 26L13 27L15 27L15 28L14 28L14 30L15 30L15 28L16 28L16 27L15 27L15 26L13 26L13 24L15 24L15 22L14 22L14 23L13 23L13 22L12 22L12 21ZM28 21L28 23L27 23L27 25L26 25L26 27L25 27L25 28L26 28L26 27L27 27L27 25L28 25L28 23L30 23L30 22L31 22L31 21ZM32 22L32 23L33 23L33 22ZM34 22L34 23L35 23L35 22ZM3 23L3 26L5 26L5 27L7 27L7 26L9 26L9 27L8 27L8 28L9 28L9 29L11 29L11 27L10 27L10 26L9 26L9 24L8 24L8 25L7 25L7 24L5 24L5 25L4 25L4 23ZM18 24L18 25L19 25L19 24ZM6 25L6 26L7 26L7 25ZM9 27L9 28L10 28L10 27ZM28 27L28 28L29 28L29 27ZM18 29L18 30L19 30L19 29ZM25 29L25 31L26 31L26 29ZM27 29L27 31L28 31L28 29ZM29 29L29 32L32 32L32 29ZM30 30L30 31L31 31L31 30ZM21 31L21 32L20 32L20 34L22 34L22 37L24 37L24 36L23 36L23 35L25 35L25 33L22 33L22 31ZM18 32L18 33L19 33L19 32ZM14 34L14 35L15 35L15 36L14 36L14 37L15 37L15 36L16 36L16 37L17 37L17 36L18 36L18 37L21 37L21 36L19 36L19 34L18 34L18 35L17 35L17 36L16 36L16 35L15 35L15 34ZM26 36L26 37L27 37L27 36ZM28 36L28 37L29 37L29 36ZM0 0L0 7L7 7L7 0ZM1 1L1 6L6 6L6 1ZM2 2L2 5L5 5L5 2ZM30 0L30 7L37 7L37 0ZM31 1L31 6L36 6L36 1ZM32 2L32 5L35 5L35 2ZM0 30L0 37L7 37L7 30ZM1 31L1 36L6 36L6 31ZM2 32L2 35L5 35L5 32Z" fill="#000000"/></g></g></svg>
