<?xml version="1.0" encoding="UTF-8"?>
<svg xmlns="http://www.w3.org/2000/svg" version="1.1" width="200" height="200" viewBox="0 0 200 200"><rect x="0" y="0" width="200" height="200" fill="#ffffff"/><g transform="scale(5.128)"><g transform="translate(1,1)"><path fill-rule="evenodd" d="M8 0L8 1L9 1L9 3L8 3L8 8L6 8L6 9L5 9L5 8L4 8L4 9L5 9L5 10L3 10L3 12L2 12L2 11L1 11L1 12L0 12L0 14L2 14L2 13L3 13L3 14L4 14L4 13L7 13L7 14L5 14L5 15L7 15L7 16L6 16L6 17L7 17L7 18L6 18L6 19L5 19L5 17L4 17L4 15L2 15L2 18L3 18L3 17L4 17L4 20L3 20L3 21L4 21L4 20L5 20L5 21L7 21L7 22L6 22L6 23L7 23L7 24L3 24L3 23L5 23L5 22L1 22L1 21L0 21L0 22L1 22L1 23L0 23L0 24L1 24L1 23L2 23L2 24L3 24L3 25L0 25L0 26L3 26L3 27L2 27L2 28L0 28L0 29L2 29L2 28L3 28L3 29L4 29L4 25L7 25L7 26L6 26L6 27L7 27L7 28L5 28L5 29L7 29L7 28L8 28L8 27L9 27L9 28L12 28L12 27L14 27L14 26L12 26L12 27L10 27L10 26L11 26L11 25L12 25L12 23L11 23L11 22L10 22L10 21L12 21L12 22L13 22L13 25L14 25L14 24L16 24L16 25L17 25L17 23L16 23L16 21L17 21L17 22L18 22L18 23L19 23L19 22L18 22L18 21L20 21L20 23L21 23L21 24L19 24L19 25L18 25L18 26L19 26L19 28L20 28L20 29L21 29L21 30L20 30L20 31L18 31L18 30L19 30L19 29L18 29L18 27L16 27L16 26L15 26L15 28L13 28L13 29L15 29L15 30L13 30L13 31L14 31L14 32L15 32L15 33L14 33L14 35L15 35L15 33L16 33L16 35L17 35L17 37L22 37L22 36L25 36L25 34L27 34L27 33L23 33L23 32L24 32L24 30L25 30L25 26L26 26L26 25L27 25L27 28L26 28L26 29L27 29L27 28L28 28L28 33L29 33L29 35L30 35L30 36L29 36L29 37L31 37L31 36L34 36L34 37L37 37L37 36L36 36L36 35L31 35L31 34L32 34L32 33L33 33L33 32L34 32L34 33L35 33L35 32L36 32L36 34L37 34L37 31L34 31L34 30L35 30L35 28L36 28L36 29L37 29L37 27L34 27L34 26L33 26L33 25L37 25L37 24L35 24L35 23L36 23L36 22L33 22L33 21L32 21L32 20L31 20L31 19L32 19L32 18L33 18L33 19L34 19L34 21L35 21L35 20L36 20L36 19L35 19L35 18L36 18L36 16L35 16L35 15L36 15L36 13L37 13L37 12L36 12L36 11L35 11L35 10L36 10L36 9L37 9L37 8L36 8L36 9L35 9L35 10L34 10L34 8L29 8L29 4L28 4L28 2L27 2L27 5L28 5L28 9L27 9L27 8L26 8L26 9L27 9L27 11L29 11L29 10L28 10L28 9L32 9L32 10L30 10L30 12L28 12L28 13L27 13L27 12L26 12L26 13L25 13L25 12L24 12L24 13L23 13L23 12L22 12L22 11L26 11L26 10L25 10L25 8L24 8L24 7L25 7L25 6L26 6L26 7L27 7L27 6L26 6L26 3L25 3L25 2L26 2L26 1L29 1L29 0L25 0L25 1L22 1L22 2L21 2L21 3L20 3L20 5L19 5L19 3L18 3L18 2L20 2L20 1L21 1L21 0L19 0L19 1L17 1L17 3L16 3L16 2L14 2L14 3L12 3L12 2L11 2L11 3L12 3L12 5L10 5L10 4L9 4L9 3L10 3L10 1L11 1L11 0ZM12 0L12 1L16 1L16 0ZM22 2L22 3L21 3L21 7L22 7L22 8L21 8L21 9L20 9L20 11L22 11L22 9L23 9L23 10L24 10L24 9L23 9L23 7L24 7L24 5L25 5L25 3L24 3L24 2ZM14 3L14 5L13 5L13 8L14 8L14 9L12 9L12 8L11 8L11 9L12 9L12 10L14 10L14 11L15 11L15 10L16 10L16 11L17 11L17 10L18 10L18 11L19 11L19 10L18 10L18 9L19 9L19 7L20 7L20 6L19 6L19 5L18 5L18 6L17 6L17 4L18 4L18 3L17 3L17 4L16 4L16 5L15 5L15 3ZM23 4L23 5L24 5L24 4ZM9 5L9 7L10 7L10 5ZM11 6L11 7L12 7L12 6ZM14 6L14 8L15 8L15 6ZM16 6L16 9L17 9L17 6ZM18 6L18 7L19 7L19 6ZM22 6L22 7L23 7L23 6ZM0 8L0 9L1 9L1 10L2 10L2 9L1 9L1 8ZM6 9L6 10L7 10L7 11L6 11L6 12L7 12L7 13L8 13L8 12L9 12L9 13L10 13L10 12L11 12L11 16L12 16L12 15L15 15L15 16L14 16L14 18L15 18L15 20L14 20L14 19L13 19L13 17L11 17L11 19L12 19L12 20L13 20L13 22L15 22L15 20L17 20L17 19L16 19L16 17L17 17L17 18L18 18L18 20L20 20L20 21L21 21L21 22L23 22L23 21L24 21L24 22L25 22L25 21L26 21L26 23L25 23L25 24L24 24L24 23L22 23L22 24L21 24L21 25L20 25L20 27L21 27L21 25L23 25L23 24L24 24L24 25L26 25L26 24L27 24L27 21L29 21L29 22L30 22L30 23L29 23L29 25L28 25L28 26L30 26L30 27L29 27L29 28L31 28L31 26L32 26L32 27L33 27L33 30L34 30L34 27L33 27L33 26L32 26L32 25L33 25L33 24L32 24L32 25L30 25L30 24L31 24L31 22L32 22L32 21L29 21L29 20L30 20L30 19L31 19L31 17L33 17L33 18L34 18L34 17L33 17L33 16L34 16L34 15L33 15L33 14L32 14L32 13L33 13L33 12L32 12L32 11L33 11L33 10L32 10L32 11L31 11L31 12L32 12L32 13L29 13L29 14L28 14L28 15L27 15L27 13L26 13L26 14L25 14L25 13L24 13L24 14L25 14L25 15L23 15L23 13L22 13L22 14L21 14L21 13L20 13L20 12L19 12L19 13L16 13L16 12L13 12L13 13L12 13L12 12L11 12L11 11L10 11L10 9ZM8 10L8 11L7 11L7 12L8 12L8 11L9 11L9 12L10 12L10 11L9 11L9 10ZM13 13L13 14L14 14L14 13ZM15 13L15 15L17 15L17 16L18 16L18 17L19 17L19 18L20 18L20 19L21 19L21 21L23 21L23 20L24 20L24 21L25 21L25 20L24 20L24 19L25 19L25 17L23 17L23 15L22 15L22 17L20 17L20 16L21 16L21 14L20 14L20 15L18 15L18 14L16 14L16 13ZM34 13L34 14L35 14L35 13ZM7 14L7 15L8 15L8 14ZM9 14L9 15L10 15L10 14ZM0 15L0 18L1 18L1 15ZM29 15L29 16L30 16L30 17L28 17L28 16L26 16L26 17L27 17L27 19L28 19L28 20L29 20L29 19L30 19L30 17L31 17L31 16L33 16L33 15ZM8 17L8 18L7 18L7 19L6 19L6 20L7 20L7 19L9 19L9 18L10 18L10 17ZM22 17L22 18L21 18L21 19L22 19L22 20L23 20L23 19L22 19L22 18L23 18L23 17ZM0 19L0 20L2 20L2 19ZM8 20L8 24L9 24L9 25L11 25L11 23L10 23L10 22L9 22L9 20ZM26 20L26 21L27 21L27 20ZM9 23L9 24L10 24L10 23ZM7 26L7 27L8 27L8 26ZM22 27L22 28L23 28L23 29L22 29L22 30L21 30L21 32L19 32L19 33L18 33L18 32L17 32L17 30L18 30L18 29L17 29L17 28L15 28L15 29L17 29L17 30L16 30L16 33L17 33L17 34L19 34L19 36L21 36L21 35L23 35L23 33L22 33L22 31L23 31L23 29L24 29L24 27ZM8 29L8 31L9 31L9 32L8 32L8 33L9 33L9 32L10 32L10 31L11 31L11 32L12 32L12 33L11 33L11 34L12 34L12 35L13 35L13 32L12 32L12 30L11 30L11 29L10 29L10 31L9 31L9 29ZM29 29L29 32L32 32L32 29ZM30 30L30 31L31 31L31 30ZM19 33L19 34L20 34L20 35L21 35L21 34L22 34L22 33ZM9 35L9 36L8 36L8 37L11 37L11 35ZM14 36L14 37L16 37L16 36ZM26 36L26 37L27 37L27 36ZM0 0L0 7L7 7L7 0ZM1 1L1 6L6 6L6 1ZM2 2L2 5L5 5L5 2ZM30 0L30 7L37 7L37 0ZM31 1L31 6L36 6L36 1ZM32 2L32 5L35 5L35 2ZM0 30L0 37L7 37L7 30ZM1 31L1 36L6 36L6 31ZM2 32L2 35L5 35L5 32Z" fill="#000000"/></g></g></svg>
