<?xml version="1.0" encoding="UTF-8"?>
<svg xmlns="http://www.w3.org/2000/svg" version="1.1" width="200" height="200" viewBox="0 0 200 200"><rect x="0" y="0" width="200" height="200" fill="#ffffff"/><g transform="scale(5.128)"><g transform="translate(1,1)"><path fill-rule="evenodd" d="M9 0L9 1L11 1L11 0ZM12 0L12 1L14 1L14 3L13 3L13 2L12 2L12 3L11 3L11 2L8 2L8 8L9 8L9 10L8 10L8 9L7 9L7 8L2 8L2 9L1 9L1 8L0 8L0 10L2 10L2 9L5 9L5 10L4 10L4 11L3 11L3 12L5 12L5 10L6 10L6 11L8 11L8 12L6 12L6 13L5 13L5 14L6 14L6 15L7 15L7 14L8 14L8 17L9 17L9 18L10 18L10 17L9 17L9 15L10 15L10 14L11 14L11 15L12 15L12 17L11 17L11 19L7 19L7 18L5 18L5 19L7 19L7 20L6 20L6 21L4 21L4 18L3 18L3 16L4 16L4 13L3 13L3 16L1 16L1 17L0 17L0 18L1 18L1 20L0 20L0 21L4 21L4 22L2 22L2 23L3 23L3 24L4 24L4 25L2 25L2 24L0 24L0 29L1 29L1 25L2 25L2 29L3 29L3 27L4 27L4 29L8 29L8 30L9 30L9 31L8 31L8 35L9 35L9 36L8 36L8 37L11 37L11 35L10 35L10 34L12 34L12 35L13 35L13 34L12 34L12 33L13 33L13 32L14 32L14 34L17 34L17 35L16 35L16 36L17 36L17 37L19 37L19 36L17 36L17 35L19 35L19 34L17 34L17 33L15 33L15 32L17 32L17 30L15 30L15 29L18 29L18 31L19 31L19 32L18 32L18 33L23 33L23 34L22 34L22 35L21 35L21 34L20 34L20 35L21 35L21 36L22 36L22 35L23 35L23 34L24 34L24 36L25 36L25 37L26 37L26 36L25 36L25 33L26 33L26 34L28 34L28 36L27 36L27 37L28 37L28 36L29 36L29 37L37 37L37 32L36 32L36 31L37 31L37 30L36 30L36 29L37 29L37 28L36 28L36 29L35 29L35 28L33 28L33 27L37 27L37 26L34 26L34 25L35 25L35 24L34 24L34 21L35 21L35 20L33 20L33 19L32 19L32 21L31 21L31 20L30 20L30 19L31 19L31 18L32 18L32 17L33 17L33 18L35 18L35 19L36 19L36 20L37 20L37 18L36 18L36 16L37 16L37 14L36 14L36 13L37 13L37 10L36 10L36 9L35 9L35 8L30 8L30 9L28 9L28 8L25 8L25 6L26 6L26 7L27 7L27 6L28 6L28 7L29 7L29 2L28 2L28 1L27 1L27 0L26 0L26 2L27 2L27 4L26 4L26 3L24 3L24 2L25 2L25 1L22 1L22 0L21 0L21 1L20 1L20 2L21 2L21 3L20 3L20 4L18 4L18 3L17 3L17 1L16 1L16 0ZM15 2L15 3L14 3L14 5L12 5L12 6L11 6L11 7L10 7L10 6L9 6L9 7L10 7L10 8L11 8L11 7L12 7L12 9L13 9L13 8L14 8L14 6L15 6L15 7L16 7L16 4L17 4L17 3L16 3L16 2ZM15 3L15 4L16 4L16 3ZM21 3L21 4L20 4L20 5L18 5L18 6L17 6L17 7L18 7L18 6L19 6L19 8L17 8L17 9L16 9L16 8L15 8L15 9L16 9L16 10L18 10L18 9L19 9L19 10L20 10L20 11L23 11L23 12L24 12L24 11L25 11L25 12L26 12L26 13L24 13L24 14L23 14L23 13L22 13L22 12L20 12L20 13L21 13L21 16L23 16L23 17L20 17L20 16L19 16L19 15L20 15L20 14L19 14L19 15L18 15L18 13L19 13L19 12L18 12L18 11L16 11L16 12L18 12L18 13L15 13L15 14L13 14L13 17L12 17L12 18L13 18L13 19L12 19L12 20L11 20L11 21L13 21L13 22L11 22L11 23L12 23L12 25L11 25L11 24L10 24L10 23L8 23L8 24L7 24L7 23L6 23L6 22L7 22L7 21L6 21L6 22L5 22L5 23L4 23L4 24L5 24L5 23L6 23L6 24L7 24L7 25L6 25L6 26L5 26L5 25L4 25L4 26L5 26L5 27L6 27L6 28L7 28L7 27L9 27L9 26L7 26L7 25L10 25L10 26L14 26L14 24L13 24L13 22L17 22L17 21L16 21L16 19L17 19L17 20L19 20L19 21L18 21L18 23L20 23L20 24L17 24L17 25L16 25L16 26L17 26L17 27L16 27L16 28L18 28L18 29L19 29L19 27L18 27L18 25L19 25L19 26L20 26L20 27L21 27L21 26L22 26L22 27L23 27L23 28L24 28L24 27L25 27L25 28L26 28L26 29L25 29L25 30L26 30L26 29L27 29L27 28L29 28L29 27L30 27L30 26L32 26L32 27L33 27L33 25L34 25L34 24L33 24L33 25L30 25L30 24L31 24L31 23L29 23L29 22L31 22L31 21L29 21L29 19L30 19L30 18L31 18L31 17L32 17L32 16L31 16L31 17L30 17L30 16L29 16L29 17L28 17L28 15L27 15L27 14L28 14L28 13L27 13L27 12L28 12L28 11L29 11L29 10L28 10L28 9L26 9L26 11L25 11L25 10L24 10L24 9L23 9L23 8L24 8L24 5L26 5L26 6L27 6L27 5L28 5L28 4L27 4L27 5L26 5L26 4L24 4L24 5L23 5L23 4L22 4L22 3ZM9 4L9 5L11 5L11 4ZM21 4L21 6L20 6L20 8L21 8L21 9L20 9L20 10L23 10L23 9L22 9L22 8L23 8L23 6L22 6L22 4ZM12 6L12 7L13 7L13 6ZM21 6L21 7L22 7L22 6ZM6 9L6 10L7 10L7 9ZM30 9L30 12L31 12L31 13L29 13L29 14L31 14L31 15L33 15L33 17L34 17L34 16L35 16L35 15L36 15L36 14L35 14L35 13L34 13L34 12L36 12L36 11L35 11L35 9ZM12 10L12 12L10 12L10 11L9 11L9 12L8 12L8 14L9 14L9 13L14 13L14 12L15 12L15 11L13 11L13 10ZM27 10L27 11L28 11L28 10ZM32 10L32 11L33 11L33 12L32 12L32 13L31 13L31 14L32 14L32 13L33 13L33 12L34 12L34 10ZM1 12L1 13L0 13L0 14L2 14L2 12ZM6 13L6 14L7 14L7 13ZM26 13L26 14L25 14L25 15L23 15L23 14L22 14L22 15L23 15L23 16L25 16L25 17L23 17L23 18L24 18L24 19L21 19L21 18L20 18L20 19L21 19L21 20L20 20L20 21L19 21L19 22L20 22L20 23L21 23L21 25L20 25L20 26L21 26L21 25L22 25L22 26L24 26L24 25L27 25L27 24L28 24L28 25L29 25L29 24L28 24L28 22L29 22L29 21L28 21L28 22L27 22L27 21L26 21L26 20L24 20L24 19L25 19L25 18L27 18L27 20L28 20L28 19L29 19L29 18L30 18L30 17L29 17L29 18L27 18L27 17L26 17L26 16L27 16L27 15L26 15L26 14L27 14L27 13ZM15 14L15 15L14 15L14 17L13 17L13 18L17 18L17 19L19 19L19 18L17 18L17 17L16 17L16 16L17 16L17 15L16 15L16 14ZM33 14L33 15L34 15L34 14ZM25 15L25 16L26 16L26 15ZM6 16L6 17L7 17L7 16ZM18 16L18 17L19 17L19 16ZM2 19L2 20L3 20L3 19ZM14 20L14 21L15 21L15 20ZM21 20L21 21L20 21L20 22L21 22L21 21L22 21L22 23L24 23L24 24L26 24L26 23L27 23L27 22L26 22L26 21L24 21L24 20L23 20L23 21L22 21L22 20ZM8 21L8 22L9 22L9 21ZM23 21L23 22L24 22L24 21ZM32 21L32 22L33 22L33 21ZM0 22L0 23L1 23L1 22ZM25 22L25 23L26 23L26 22ZM36 22L36 24L37 24L37 22ZM15 23L15 24L16 24L16 23ZM22 24L22 25L23 25L23 24ZM6 26L6 27L7 27L7 26ZM27 26L27 27L29 27L29 26ZM11 27L11 28L10 28L10 29L9 29L9 28L8 28L8 29L9 29L9 30L10 30L10 29L11 29L11 28L12 28L12 29L13 29L13 28L14 28L14 27L13 27L13 28L12 28L12 27ZM20 28L20 29L21 29L21 32L23 32L23 33L25 33L25 32L26 32L26 33L27 33L27 32L28 32L28 30L27 30L27 31L25 31L25 32L24 32L24 30L23 30L23 29L22 29L22 28ZM29 29L29 32L32 32L32 29ZM11 30L11 32L10 32L10 31L9 31L9 32L10 32L10 33L11 33L11 32L13 32L13 30ZM14 30L14 32L15 32L15 30ZM19 30L19 31L20 31L20 30ZM22 30L22 31L23 31L23 30ZM30 30L30 31L31 31L31 30ZM35 30L35 31L34 31L34 32L35 32L35 33L33 33L33 34L32 34L32 33L31 33L31 34L29 34L29 33L28 33L28 34L29 34L29 35L30 35L30 36L31 36L31 35L33 35L33 34L34 34L34 36L36 36L36 35L35 35L35 34L36 34L36 32L35 32L35 31L36 31L36 30ZM14 35L14 37L15 37L15 35ZM0 0L0 7L7 7L7 0ZM1 1L1 6L6 6L6 1ZM2 2L2 5L5 5L5 2ZM30 0L30 7L37 7L37 0ZM31 1L31 6L36 6L36 1ZM32 2L32 5L35 5L35 2ZM0 30L0 37L7 37L7 30ZM1 31L1 36L6 36L6 31ZM2 32L2 35L5 35L5 32Z" fill="#000000"/></g></g></svg>
