<?xml version="1.0" encoding="UTF-8"?>
<svg xmlns="http://www.w3.org/2000/svg" version="1.1" width="200" height="200" viewBox="0 0 200 200"><rect x="0" y="0" width="200" height="200" fill="#ffffff"/><g transform="scale(5.128)"><g transform="translate(1,1)"><path fill-rule="evenodd" d="M8 0L8 1L9 1L9 0ZM10 0L10 1L11 1L11 3L8 3L8 8L6 8L6 9L8 9L8 10L4 10L4 9L5 9L5 8L4 8L4 9L3 9L3 12L4 12L4 13L2 13L2 14L4 14L4 15L5 15L5 16L4 16L4 18L3 18L3 19L4 19L4 21L3 21L3 20L2 20L2 22L0 22L0 23L2 23L2 22L3 22L3 23L4 23L4 21L7 21L7 20L5 20L5 19L7 19L7 18L8 18L8 22L6 22L6 23L7 23L7 24L6 24L6 25L7 25L7 24L8 24L8 25L9 25L9 26L10 26L10 28L8 28L8 31L9 31L9 32L8 32L8 33L9 33L9 34L10 34L10 33L9 33L9 32L11 32L11 31L12 31L12 30L11 30L11 29L14 29L14 32L12 32L12 36L11 36L11 35L9 35L9 36L8 36L8 37L9 37L9 36L10 36L10 37L12 37L12 36L13 36L13 35L14 35L14 34L15 34L15 33L16 33L16 35L17 35L17 37L22 37L22 36L23 36L23 37L24 37L24 34L26 34L26 33L27 33L27 32L26 32L26 33L23 33L23 32L24 32L24 30L26 30L26 31L27 31L27 30L26 30L26 29L27 29L27 28L26 28L26 29L25 29L25 26L26 26L26 25L27 25L27 27L28 27L28 33L29 33L29 35L30 35L30 36L29 36L29 37L31 37L31 36L34 36L34 37L37 37L37 36L36 36L36 35L35 35L35 33L36 33L36 34L37 34L37 32L35 32L35 31L36 31L36 29L37 29L37 27L35 27L35 25L37 25L37 24L36 24L36 22L33 22L33 21L35 21L35 20L36 20L36 19L35 19L35 18L36 18L36 16L35 16L35 15L36 15L36 13L37 13L37 12L36 12L36 11L35 11L35 10L36 10L36 9L37 9L37 8L36 8L36 9L35 9L35 10L34 10L34 8L29 8L29 4L28 4L28 3L29 3L29 2L28 2L28 3L27 3L27 5L26 5L26 3L25 3L25 2L26 2L26 1L29 1L29 0L25 0L25 1L22 1L22 2L21 2L21 3L20 3L20 5L19 5L19 6L18 6L18 4L17 4L17 6L16 6L16 7L15 7L15 6L14 6L14 8L16 8L16 9L17 9L17 6L18 6L18 7L19 7L19 6L20 6L20 8L19 8L19 9L18 9L18 11L16 11L16 10L15 10L15 9L14 9L14 10L13 10L13 9L12 9L12 8L11 8L11 10L10 10L10 11L9 11L9 8L10 8L10 7L11 7L11 5L12 5L12 7L13 7L13 5L12 5L12 3L14 3L14 2L16 2L16 3L19 3L19 2L20 2L20 1L21 1L21 0L19 0L19 1L13 1L13 0L12 0L12 1L11 1L11 0ZM22 2L22 3L21 3L21 7L22 7L22 8L21 8L21 9L20 9L20 11L22 11L22 12L23 12L23 13L22 13L22 14L21 14L21 13L20 13L20 12L19 12L19 11L18 11L18 12L19 12L19 13L16 13L16 12L15 12L15 10L14 10L14 11L13 11L13 10L11 10L11 12L15 12L15 13L10 13L10 14L9 14L9 15L8 15L8 14L7 14L7 13L6 13L6 12L7 12L7 11L6 11L6 12L5 12L5 11L4 11L4 12L5 12L5 13L4 13L4 14L5 14L5 15L6 15L6 16L5 16L5 17L6 17L6 18L7 18L7 17L8 17L8 18L9 18L9 19L12 19L12 16L13 16L13 14L15 14L15 13L16 13L16 15L17 15L17 14L18 14L18 15L19 15L19 16L20 16L20 17L22 17L22 18L21 18L21 19L20 19L20 18L19 18L19 17L18 17L18 16L14 16L14 17L15 17L15 18L14 18L14 19L13 19L13 21L12 21L12 22L11 22L11 20L9 20L9 21L10 21L10 23L12 23L12 22L13 22L13 21L14 21L14 22L15 22L15 20L16 20L16 21L17 21L17 19L18 19L18 20L20 20L20 21L18 21L18 22L17 22L17 23L16 23L16 24L15 24L15 23L13 23L13 24L14 24L14 25L13 25L13 26L14 26L14 27L12 27L12 25L10 25L10 24L9 24L9 22L8 22L8 24L9 24L9 25L10 25L10 26L11 26L11 27L12 27L12 28L14 28L14 29L17 29L17 30L16 30L16 33L17 33L17 34L19 34L19 35L18 35L18 36L21 36L21 35L23 35L23 33L22 33L22 31L23 31L23 29L24 29L24 28L23 28L23 27L22 27L22 28L23 28L23 29L22 29L22 30L21 30L21 29L20 29L20 28L19 28L19 26L18 26L18 25L19 25L19 23L20 23L20 24L21 24L21 25L20 25L20 27L21 27L21 25L23 25L23 24L24 24L24 25L26 25L26 24L27 24L27 21L29 21L29 25L28 25L28 26L30 26L30 27L29 27L29 28L31 28L31 26L32 26L32 27L34 27L34 25L33 25L33 24L32 24L32 25L30 25L30 24L31 24L31 22L32 22L32 21L33 21L33 18L35 18L35 17L33 17L33 16L34 16L34 15L33 15L33 14L32 14L32 13L33 13L33 11L32 11L32 13L29 13L29 14L28 14L28 15L27 15L27 13L28 13L28 12L30 12L30 10L31 10L31 9L30 9L30 10L28 10L28 12L27 12L27 10L26 10L26 9L29 9L29 8L28 8L28 5L27 5L27 7L26 7L26 5L25 5L25 3L24 3L24 2ZM9 4L9 5L11 5L11 4ZM14 4L14 5L15 5L15 4ZM23 4L23 5L24 5L24 7L23 7L23 6L22 6L22 7L23 7L23 9L22 9L22 11L23 11L23 12L24 12L24 13L23 13L23 15L22 15L22 17L23 17L23 18L22 18L22 19L21 19L21 21L20 21L20 22L21 22L21 24L22 24L22 23L24 23L24 24L25 24L25 22L26 22L26 21L27 21L27 20L26 20L26 21L25 21L25 20L24 20L24 17L25 17L25 16L24 16L24 17L23 17L23 15L25 15L25 14L26 14L26 13L27 13L27 12L26 12L26 13L25 13L25 12L24 12L24 11L26 11L26 10L25 10L25 8L24 8L24 7L25 7L25 5L24 5L24 4ZM9 6L9 7L10 7L10 6ZM0 8L0 10L1 10L1 11L2 11L2 9L1 9L1 8ZM23 9L23 10L24 10L24 9ZM0 12L0 13L1 13L1 12ZM8 12L8 13L9 13L9 12ZM24 13L24 14L25 14L25 13ZM34 13L34 14L35 14L35 13ZM0 14L0 16L1 16L1 17L2 17L2 16L1 16L1 14ZM6 14L6 15L7 15L7 14ZM10 14L10 15L11 15L11 16L12 16L12 14ZM26 15L26 17L27 17L27 19L30 19L30 20L29 20L29 21L32 21L32 20L31 20L31 19L32 19L32 18L33 18L33 17L31 17L31 16L33 16L33 15L31 15L31 16L27 16L27 15ZM6 16L6 17L7 17L7 16ZM8 16L8 17L9 17L9 18L10 18L10 16ZM16 17L16 19L17 19L17 17ZM28 17L28 18L30 18L30 19L31 19L31 17ZM0 18L0 21L1 21L1 18ZM22 19L22 20L23 20L23 19ZM21 21L21 22L23 22L23 21ZM24 21L24 22L25 22L25 21ZM18 22L18 23L19 23L19 22ZM2 24L2 25L0 25L0 26L4 26L4 25L3 25L3 24ZM16 24L16 25L17 25L17 24ZM14 25L14 26L15 26L15 27L14 27L14 28L17 28L17 29L18 29L18 30L17 30L17 32L18 32L18 33L19 33L19 34L20 34L20 35L21 35L21 34L22 34L22 33L19 33L19 32L21 32L21 30L20 30L20 31L18 31L18 30L19 30L19 29L18 29L18 26L17 26L17 27L16 27L16 26L15 26L15 25ZM32 25L32 26L33 26L33 25ZM6 26L6 27L8 27L8 26ZM2 27L2 28L0 28L0 29L7 29L7 28L4 28L4 27ZM35 28L35 29L36 29L36 28ZM29 29L29 32L32 32L32 29ZM33 29L33 30L34 30L34 31L35 31L35 30L34 30L34 29ZM9 30L9 31L11 31L11 30ZM30 30L30 31L31 31L31 30ZM14 32L14 33L13 33L13 34L14 34L14 33L15 33L15 32ZM33 32L33 33L32 33L32 34L31 34L31 35L34 35L34 32ZM27 35L27 36L26 36L26 37L28 37L28 35ZM15 36L15 37L16 37L16 36ZM0 0L0 7L7 7L7 0ZM1 1L1 6L6 6L6 1ZM2 2L2 5L5 5L5 2ZM30 0L30 7L37 7L37 0ZM31 1L31 6L36 6L36 1ZM32 2L32 5L35 5L35 2ZM0 30L0 37L7 37L7 30ZM1 31L1 36L6 36L6 31ZM2 32L2 35L5 35L5 32Z" fill="#000000"/></g></g></svg>
