<?xml version="1.0" encoding="UTF-8"?>
<svg xmlns="http://www.w3.org/2000/svg" version="1.1" width="200" height="200" viewBox="0 0 200 200"><rect x="0" y="0" width="200" height="200" fill="#ffffff"/><g transform="scale(5.128)"><g transform="translate(1,1)"><path fill-rule="evenodd" d="M8 0L8 3L9 3L9 4L8 4L8 5L10 5L10 9L9 9L9 8L3 8L3 9L2 9L2 10L1 10L1 8L0 8L0 10L1 10L1 12L0 12L0 13L1 13L1 14L2 14L2 13L4 13L4 14L3 14L3 15L0 15L0 16L1 16L1 17L0 17L0 18L2 18L2 21L0 21L0 23L1 23L1 24L3 24L3 27L2 27L2 25L0 25L0 29L1 29L1 27L2 27L2 29L3 29L3 27L4 27L4 24L6 24L6 25L11 25L11 26L12 26L12 25L13 25L13 27L12 27L12 28L11 28L11 27L10 27L10 26L8 26L8 27L10 27L10 29L8 29L8 28L5 28L5 29L8 29L8 34L13 34L13 35L12 35L12 36L11 36L11 37L13 37L13 36L14 36L14 37L15 37L15 36L16 36L16 37L17 37L17 36L18 36L18 37L21 37L21 36L19 36L19 34L18 34L18 35L17 35L17 36L16 36L16 35L15 35L15 36L14 36L14 33L15 33L15 31L16 31L16 33L17 33L17 31L20 31L20 27L18 27L18 29L17 29L17 31L16 31L16 28L17 28L17 27L16 27L16 26L15 26L15 27L16 27L16 28L15 28L15 30L14 30L14 29L12 29L12 28L13 28L13 27L14 27L14 25L16 25L16 24L14 24L14 23L17 23L17 22L18 22L18 21L19 21L19 22L20 22L20 20L21 20L21 19L20 19L20 18L19 18L19 20L17 20L17 19L18 19L18 17L19 17L19 16L21 16L21 18L22 18L22 20L23 20L23 19L24 19L24 21L22 21L22 22L21 22L21 23L22 23L22 22L23 22L23 23L24 23L24 21L25 21L25 20L27 20L27 19L28 19L28 17L27 17L27 16L28 16L28 14L29 14L29 17L32 17L32 14L33 14L33 16L34 16L34 18L35 18L35 16L37 16L37 14L36 14L36 13L37 13L37 10L36 10L36 9L37 9L37 8L34 8L34 9L33 9L33 8L32 8L32 11L31 11L31 12L30 12L30 13L32 13L32 14L29 14L29 13L28 13L28 12L26 12L26 13L25 13L25 11L28 11L28 10L30 10L30 8L29 8L29 9L28 9L28 7L29 7L29 6L28 6L28 7L27 7L27 5L26 5L26 7L25 7L25 5L22 5L22 2L23 2L23 4L28 4L28 5L29 5L29 4L28 4L28 3L29 3L29 2L27 2L27 3L26 3L26 1L27 1L27 0L25 0L25 1L24 1L24 0L19 0L19 1L18 1L18 2L19 2L19 3L17 3L17 0L15 0L15 1L13 1L13 0L12 0L12 1L11 1L11 2L10 2L10 0ZM20 1L20 3L19 3L19 4L17 4L17 7L16 7L16 6L15 6L15 5L13 5L13 3L14 3L14 4L15 4L15 2L13 2L13 3L12 3L12 2L11 2L11 3L10 3L10 2L9 2L9 3L10 3L10 5L11 5L11 11L12 11L12 12L14 12L14 13L15 13L15 12L16 12L16 14L17 14L17 16L16 16L16 15L15 15L15 19L16 19L16 18L17 18L17 16L19 16L19 15L18 15L18 13L19 13L19 14L21 14L21 15L25 15L25 16L24 16L24 17L23 17L23 18L24 18L24 19L25 19L25 18L24 18L24 17L25 17L25 16L27 16L27 15L25 15L25 13L24 13L24 14L23 14L23 12L24 12L24 11L23 11L23 10L24 10L24 9L21 9L21 8L22 8L22 5L19 5L19 4L21 4L21 2L22 2L22 1ZM24 2L24 3L25 3L25 2ZM12 5L12 7L13 7L13 8L12 8L12 9L13 9L13 8L14 8L14 9L15 9L15 6L14 6L14 7L13 7L13 5ZM8 6L8 7L9 7L9 6ZM18 6L18 7L17 7L17 8L19 8L19 9L18 9L18 11L17 11L17 9L16 9L16 10L15 10L15 11L16 11L16 12L20 12L20 13L21 13L21 14L22 14L22 13L21 13L21 10L19 10L19 9L20 9L20 7L21 7L21 6L20 6L20 7L19 7L19 6ZM23 6L23 8L24 8L24 6ZM25 8L25 9L26 9L26 8ZM3 9L3 11L2 11L2 12L3 12L3 11L4 11L4 12L5 12L5 11L6 11L6 12L7 12L7 11L6 11L6 10L8 10L8 14L7 14L7 13L5 13L5 14L4 14L4 15L3 15L3 16L5 16L5 19L6 19L6 20L9 20L9 21L5 21L5 20L4 20L4 18L3 18L3 17L2 17L2 18L3 18L3 21L2 21L2 22L1 22L1 23L2 23L2 22L3 22L3 21L5 21L5 22L4 22L4 23L3 23L3 24L4 24L4 23L6 23L6 24L8 24L8 23L6 23L6 22L9 22L9 24L10 24L10 20L9 20L9 19L10 19L10 18L11 18L11 19L12 19L12 20L11 20L11 23L12 23L12 22L13 22L13 23L14 23L14 22L15 22L15 21L17 21L17 20L15 20L15 21L14 21L14 22L13 22L13 19L14 19L14 16L13 16L13 18L11 18L11 16L10 16L10 15L12 15L12 13L11 13L11 14L10 14L10 13L9 13L9 12L10 12L10 11L9 11L9 10L8 10L8 9L6 9L6 10L5 10L5 11L4 11L4 9ZM12 10L12 11L13 11L13 10ZM34 10L34 11L36 11L36 10ZM32 11L32 13L33 13L33 11ZM34 12L34 14L35 14L35 15L36 15L36 14L35 14L35 13L36 13L36 12ZM26 13L26 14L27 14L27 13ZM5 14L5 15L7 15L7 16L6 16L6 17L7 17L7 18L6 18L6 19L8 19L8 18L10 18L10 16L9 16L9 17L8 17L8 15L7 15L7 14ZM30 15L30 16L31 16L31 15ZM29 18L29 20L28 20L28 21L27 21L27 23L26 23L26 25L23 25L23 24L20 24L20 23L18 23L18 24L17 24L17 25L18 25L18 26L20 26L20 25L21 25L21 27L23 27L23 28L22 28L22 29L21 29L21 30L23 30L23 31L24 31L24 32L27 32L27 33L28 33L28 35L30 35L30 34L31 34L31 33L33 33L33 34L32 34L32 35L31 35L31 36L30 36L30 37L31 37L31 36L33 36L33 37L34 37L34 36L36 36L36 37L37 37L37 30L36 30L36 29L37 29L37 28L35 28L35 27L37 27L37 26L34 26L34 25L32 25L32 24L33 24L33 23L34 23L34 24L36 24L36 25L37 25L37 24L36 24L36 23L37 23L37 22L35 22L35 21L34 21L34 19L32 19L32 18ZM36 18L36 20L37 20L37 18ZM30 19L30 20L31 20L31 19ZM28 21L28 23L27 23L27 25L26 25L26 27L24 27L24 26L23 26L23 27L24 27L24 28L26 28L26 27L27 27L27 25L28 25L28 26L29 26L29 27L28 27L28 28L29 28L29 27L30 27L30 26L31 26L31 27L32 27L32 28L33 28L33 27L34 27L34 26L32 26L32 25L29 25L29 24L30 24L30 23L31 23L31 21ZM33 21L33 22L32 22L32 23L33 23L33 22L34 22L34 23L35 23L35 22L34 22L34 21ZM29 22L29 23L28 23L28 24L29 24L29 23L30 23L30 22ZM11 24L11 25L12 25L12 24ZM18 24L18 25L19 25L19 24ZM5 26L5 27L7 27L7 26ZM10 29L10 30L9 30L9 31L10 31L10 30L11 30L11 31L12 31L12 32L13 32L13 33L14 33L14 31L12 31L12 29ZM18 29L18 30L19 30L19 29ZM23 29L23 30L24 30L24 29ZM25 29L25 31L26 31L26 29ZM27 29L27 31L28 31L28 29ZM29 29L29 32L32 32L32 29ZM33 29L33 30L34 30L34 31L33 31L33 32L34 32L34 33L35 33L35 35L36 35L36 33L35 33L35 32L36 32L36 30L35 30L35 29ZM30 30L30 31L31 31L31 30ZM21 31L21 32L20 32L20 34L22 34L22 37L24 37L24 36L25 36L25 35L24 35L24 34L25 34L25 33L22 33L22 31ZM9 32L9 33L10 33L10 32ZM18 32L18 33L19 33L19 32ZM26 34L26 35L27 35L27 34ZM9 35L9 36L8 36L8 37L9 37L9 36L10 36L10 35ZM23 35L23 36L24 36L24 35ZM33 35L33 36L34 36L34 35ZM26 36L26 37L27 37L27 36ZM28 36L28 37L29 37L29 36ZM0 0L0 7L7 7L7 0ZM1 1L1 6L6 6L6 1ZM2 2L2 5L5 5L5 2ZM30 0L30 7L37 7L37 0ZM31 1L31 6L36 6L36 1ZM32 2L32 5L35 5L35 2ZM0 30L0 37L7 37L7 30ZM1 31L1 36L6 36L6 31ZM2 32L2 35L5 35L5 32Z" fill="#000000"/></g></g></svg>
